{
	"asset":{
		"generator":"Khronos glTF Blender I/O v4.1.63",
		"version":"2.0"
	},
	"extensionsUsed":[
		"KHR_materials_transmission",
		"KHR_materials_specular",
		"KHR_materials_ior",
		"KHR_materials_clearcoat",
		"KHR_materials_sheen"
	],
	"scene":0,
	"scenes":[
		{
			"name":"Scene",
			"nodes":[
				2
			]
		}
	],
	"nodes":[
		{
			"mesh":0,
			"name":"window_front",
			"translation":[
				0.03457307815551758,
				0.9447721242904663,
				0.3618030250072479
			]
		},
		{
			"mesh":1,
			"name":"windows_black",
			"translation":[
				0.03457307815551758,
				0.9298476576805115,
				-1.450289011001587
			]
		},
		{
			"children":[
				0,
				1
			],
			"mesh":2,
			"name":"car_body"
		}
	],
	"materials":[
		{
			"alphaMode":"BLEND",
			"doubleSided":true,
			"extensions":{
				"KHR_materials_transmission":{
					"transmissionFactor":0.949999988079071
				},
				"KHR_materials_specular":{
					"specularFactor":0
				},
				"KHR_materials_ior":{
					"ior":1
				}
			},
			"name":"WINDOW",
			"pbrMetallicRoughness":{
				"baseColorTexture":{
					"index":0
				},
				"metallicFactor":0,
				"roughnessFactor":0
			}
		},
		{
			"alphaMode":"BLEND",
			"doubleSided":true,
			"extensions":{
				"KHR_materials_clearcoat":{
					"clearcoatFactor":0.07222727686166763,
					"clearcoatRoughnessFactor":0.8665454387664795
				},
				"KHR_materials_transmission":{
					"transmissionFactor":0.949999988079071
				},
				"KHR_materials_specular":{
					"specularFactor":0
				},
				"KHR_materials_sheen":{
					"sheenColorFactor":[
						1.0,
						1.0,
						1.0
					],
					"sheenRoughnessFactor":0.5
				},
				"KHR_materials_ior":{
					"ior":1
				}
			},
			"name":"WINDOW BLACK",
			"pbrMetallicRoughness":{
				"baseColorTexture":{
					"index":1
				},
				"metallicFactor":0,
				"roughnessFactor":0
			}
		},
		{
			"doubleSided":true,
			"extensions":{
				"KHR_materials_specular":{
					"specularFactor":0
				},
				"KHR_materials_ior":{
					"ior":1.4500000476837158
				}
			},
			"name":"MAIN",
			"pbrMetallicRoughness":{
				"baseColorTexture":{
					"index":2
				},
				"metallicFactor":0.5,
				"roughnessFactor":0.5
			}
		}
	],
	"meshes":[
		{
			"name":"Cube.246",
			"primitives":[
				{
					"attributes":{
						"POSITION":0,
						"NORMAL":1,
						"TEXCOORD_0":2
					},
					"indices":3,
					"material":0
				}
			]
		},
		{
			"name":"Cube.201",
			"primitives":[
				{
					"attributes":{
						"POSITION":4,
						"NORMAL":5,
						"TEXCOORD_0":6
					},
					"indices":7,
					"material":1
				}
			]
		},
		{
			"name":"Cube.251",
			"primitives":[
				{
					"attributes":{
						"POSITION":8,
						"NORMAL":9,
						"TEXCOORD_0":10
					},
					"indices":11,
					"material":2
				}
			]
		}
	],
	"textures":[
		{
			"sampler":0,
			"source":0
		},
		{
			"sampler":0,
			"source":0
		},
		{
			"sampler":0,
			"source":0
		}
	],
	"images":[
		{
			"mimeType":"image/png",
			"name":"001_COLOR_BASIC",
			"uri":"001_COLOR_BASIC.png"
		}
	],
	"accessors":[
		{
			"bufferView":0,
			"componentType":5126,
			"count":4,
			"max":[
				0.6954387426376343,
				0.15404081344604492,
				0.33650508522987366
			],
			"min":[
				-0.6954387426376343,
				-0.15404075384140015,
				-0.33650505542755127
			],
			"type":"VEC3"
		},
		{
			"bufferView":1,
			"componentType":5126,
			"count":4,
			"type":"VEC3"
		},
		{
			"bufferView":2,
			"componentType":5126,
			"count":4,
			"type":"VEC2"
		},
		{
			"bufferView":3,
			"componentType":5123,
			"count":6,
			"type":"SCALAR"
		},
		{
			"bufferView":4,
			"componentType":5126,
			"count":16,
			"max":[
				0.7165327668190002,
				0.13193917274475098,
				0.5135270357131958
			],
			"min":[
				-0.7165327668190002,
				-0.13193917274475098,
				-0.5135269165039062
			],
			"type":"VEC3"
		},
		{
			"bufferView":5,
			"componentType":5126,
			"count":16,
			"type":"VEC3"
		},
		{
			"bufferView":6,
			"componentType":5126,
			"count":16,
			"type":"VEC2"
		},
		{
			"bufferView":7,
			"componentType":5123,
			"count":18,
			"type":"SCALAR"
		},
		{
			"bufferView":8,
			"componentType":5126,
			"count":1348,
			"max":[
				0.8495120406150818,
				1.1284147500991821,
				2.1086137294769287
			],
			"min":[
				-0.7803658843040466,
				0.16083066165447235,
				-2.110600471496582
			],
			"type":"VEC3"
		},
		{
			"bufferView":9,
			"componentType":5126,
			"count":1348,
			"type":"VEC3"
		},
		{
			"bufferView":10,
			"componentType":5126,
			"count":1348,
			"type":"VEC2"
		},
		{
			"bufferView":11,
			"componentType":5123,
			"count":4872,
			"type":"SCALAR"
		}
	],
	"bufferViews":[
		{
			"buffer":0,
			"byteLength":48,
			"byteOffset":0,
			"target":34962
		},
		{
			"buffer":0,
			"byteLength":48,
			"byteOffset":48,
			"target":34962
		},
		{
			"buffer":0,
			"byteLength":32,
			"byteOffset":96,
			"target":34962
		},
		{
			"buffer":0,
			"byteLength":12,
			"byteOffset":128,
			"target":34963
		},
		{
			"buffer":0,
			"byteLength":192,
			"byteOffset":140,
			"target":34962
		},
		{
			"buffer":0,
			"byteLength":192,
			"byteOffset":332,
			"target":34962
		},
		{
			"buffer":0,
			"byteLength":128,
			"byteOffset":524,
			"target":34962
		},
		{
			"buffer":0,
			"byteLength":36,
			"byteOffset":652,
			"target":34963
		},
		{
			"buffer":0,
			"byteLength":16176,
			"byteOffset":688,
			"target":34962
		},
		{
			"buffer":0,
			"byteLength":16176,
			"byteOffset":16864,
			"target":34962
		},
		{
			"buffer":0,
			"byteLength":10784,
			"byteOffset":33040,
			"target":34962
		},
		{
			"buffer":0,
			"byteLength":9744,
			"byteOffset":43824,
			"target":34963
		}
	],
	"samplers":[
		{
			"magFilter":9729,
			"minFilter":9987
		}
	],
	"buffers":[
		{
			"byteLength":53568,
			"uri":"coupe.bin"
		}
	]
}
