{
	"asset":{
		"generator":"Khronos glTF Blender I/O v4.1.63",
		"version":"2.0"
	},
	"extensionsUsed":[
		"KHR_materials_specular",
		"KHR_materials_ior"
	],
	"scene":0,
	"scenes":[
		{
			"extras":{
				"skinify":{
					"connect_mesh":0,
					"connect_parents":0,
					"generate_all":0,
					"thickness":0.800000011920929,
					"finger_thickness":0.25,
					"apply_mod":1,
					"parent_armature":1,
					"sub_level":1
				},
				"RBTab_Settings":{},
				"gltf_all_selected_edges":"{\"1\": [[102, 45], [113, 39], [118, 41], [43, 101]], \"4\": [[0, 1], [2, 3], [4, 5], [4, 3], [2, 5], [2, 0], [1, 3], [9, 8], [8, 7], [7, 6], [6, 9], [5, 7], [8, 4], [1, 9], [6, 0], [11, 10], [14, 15], [12, 13], [12, 15], [14, 13], [10, 13], [11, 12], [17, 16], [16, 19], [19, 18], [18, 17], [15, 19], [16, 14], [17, 10], [18, 11], [20, 21], [22, 23], [21, 23], [22, 20], [24, 25], [26, 27], [25, 27], [26, 24], [20, 24], [26, 22], [27, 23], [25, 21], [28, 29], [29, 25], [28, 24], [30, 31], [31, 29], [30, 28], [32, 33], [34, 35], [32, 35], [34, 33], [37, 36], [36, 39], [39, 38], [38, 37], [38, 35], [32, 37], [34, 27], [26, 33], [30, 36], [33, 28], [39, 31], [34, 29], [40, 41], [42, 43], [44, 45], [44, 43], [42, 45], [42, 40], [41, 43], [49, 48], [48, 47], [47, 46], [46, 49], [45, 47], [48, 44], [41, 49], [46, 40], [51, 50], [54, 55], [52, 53], [52, 55], [54, 53], [50, 53], [51, 52], [57, 56], [56, 59], [59, 58], [58, 57], [55, 59], [56, 54], [57, 50], [58, 51], [60, 61], [62, 63], [61, 63], [62, 60], [64, 65], [66, 67], [65, 67], [66, 64], [60, 64], [66, 62], [67, 63], [65, 61], [68, 69], [69, 65], [68, 64], [70, 71], [71, 69], [70, 68], [72, 73], [74, 75], [72, 75], [74, 73], [77, 76], [76, 79], [79, 78], [78, 77], [78, 75], [72, 77], [74, 67], [66, 73], [70, 76], [73, 68], [79, 71], [74, 69], [80, 81], [80, 83], [83, 82], [82, 104], [84, 85], [87, 86], [82, 86], [87, 83], [81, 85], [84, 80], [90, 88], [88, 89], [89, 91], [91, 90], [94, 90], [91, 95], [95, 94], [92, 94], [95, 93], [93, 92], [88, 92], [93, 89], [96, 97], [97, 98], [98, 99], [99, 96], [95, 98], [99, 93], [89, 96], [97, 91], [100, 101], [101, 102], [102, 103], [103, 100], [96, 100], [101, 97], [99, 103], [102, 98], [106, 83], [81, 105], [80, 107], [107, 106], [104, 106], [107, 105], [110, 108], [108, 109], [109, 111], [111, 110], [114, 110], [111, 115], [115, 114], [112, 114], [115, 113], [113, 112], [108, 112], [113, 109], [116, 117], [117, 118], [118, 119], [119, 116], [115, 118], [119, 113], [109, 116], [117, 111], [120, 121], [121, 122], [122, 123], [123, 120], [124, 120], [125, 117], [126, 123], [127, 118], [116, 124], [121, 125], [119, 126], [122, 127], [127, 126], [125, 127], [126, 124], [124, 125], [129, 128], [131, 129], [130, 131], [128, 130], [129, 110], [114, 131], [128, 108], [112, 130], [132, 133], [133, 135], [135, 134], [134, 132], [133, 129], [131, 135], [130, 134], [132, 128], [138, 136], [136, 137], [137, 139], [139, 138], [142, 138], [139, 143], [143, 142], [140, 142], [143, 141], [141, 140], [136, 140], [141, 137], [146, 144], [144, 145], [145, 147], [147, 146], [150, 146], [147, 151], [151, 150], [148, 150], [151, 149], [149, 148], [144, 148], [149, 145], [154, 152], [152, 153], [153, 155], [155, 154], [158, 154], [155, 159], [159, 158], [156, 158], [159, 157], [157, 156], [152, 156], [157, 153], [162, 163], [163, 164], [160, 161], [167, 168], [168, 169], [165, 166], [192, 167], [200, 168], [170, 167], [175, 161], [172, 169], [176, 163], [177, 160], [166, 171], [179, 172], [168, 173], [165, 174], [173, 170], [171, 174], [172, 173], [170, 185], [173, 176], [162, 178], [164, 179], [176, 178], [175, 177], [179, 176], [186, 171], [175, 187], [184, 178], [186, 174], [187, 177], [184, 180], [181, 185], [182, 186], [183, 187], [182, 190], [191, 183], [180, 188], [189, 181], [194, 162], [166, 192], [165, 193], [184, 175], [193, 192], [185, 171], [185, 192], [161, 194], [160, 195], [185, 186], [184, 187], [181, 182], [180, 183], [189, 190], [188, 191], [194, 195], [194, 184], [199, 196], [197, 198], [197, 165], [174, 198], [196, 160], [195, 164], [199, 177], [193, 200], [169, 200], [200, 167], [195, 201], [164, 201], [162, 201], [164, 196], [193, 169], [169, 197], [178, 170], [174, 177], [184, 185], [186, 187], [180, 181], [182, 183], [188, 189], [190, 191], [198, 199], [203, 202], [203, 204], [204, 205], [205, 202], [203, 173], [176, 204], [202, 170], [205, 178], [206, 207], [207, 208], [208, 209], [206, 209], [211, 210], [212, 211], [213, 212], [210, 213], [209, 213], [210, 206], [207, 211], [212, 208], [216, 214], [214, 215], [215, 217], [217, 216], [220, 216], [217, 221], [221, 220], [218, 220], [221, 219], [219, 218], [214, 218], [219, 215], [224, 222], [222, 223], [223, 225], [225, 224], [228, 224], [225, 229], [229, 228], [226, 228], [229, 227], [227, 226], [222, 226], [227, 223], [232, 230], [230, 231], [231, 233], [233, 232], [236, 232], [233, 237], [237, 236], [234, 236], [237, 235], [235, 234], [230, 234], [235, 231], [240, 238], [238, 239], [239, 241], [241, 240], [244, 240], [241, 245], [245, 244], [242, 244], [245, 243], [243, 242], [238, 242], [243, 239], [248, 246], [246, 247], [247, 249], [249, 248], [252, 248], [249, 253], [253, 252], [250, 252], [253, 251], [251, 250], [246, 250], [251, 247], [256, 254], [254, 255], [255, 257], [257, 256], [260, 256], [257, 261], [261, 260], [258, 260], [261, 259], [259, 258], [254, 258], [259, 255], [264, 262], [262, 263], [263, 265], [265, 264], [268, 264], [265, 269], [269, 268], [266, 268], [269, 267], [267, 266], [262, 266], [267, 263], [272, 270], [270, 271], [271, 273], [273, 272], [276, 272], [273, 277], [277, 276], [274, 276], [277, 275], [275, 274], [270, 274], [275, 271], [278, 279], [279, 280], [280, 281], [278, 281], [283, 282], [284, 283], [285, 284], [282, 285], [281, 285], [282, 278], [279, 283], [284, 280], [286, 287], [287, 288], [288, 289], [286, 289], [291, 290], [292, 291], [293, 292], [290, 293], [289, 293], [290, 286], [287, 291], [292, 288], [294, 296], [297, 295], [294, 295], [297, 296], [296, 298], [299, 297], [299, 298], [298, 300], [301, 299], [301, 300], [300, 302], [303, 301], [303, 302], [302, 304], [305, 303], [305, 304], [304, 294], [295, 305], [295, 301], [306, 308], [309, 307], [306, 307], [309, 308], [308, 310], [311, 309], [311, 310], [310, 312], [313, 311], [313, 312], [312, 314], [315, 313], [315, 314], [314, 316], [317, 315], [317, 316], [316, 306], [307, 317], [307, 313], [318, 320], [321, 319], [318, 319], [321, 320], [320, 322], [323, 321], [323, 322], [322, 324], [325, 323], [325, 324], [324, 326], [327, 325], [327, 326], [326, 328], [329, 327], [329, 328], [328, 318], [319, 329], [319, 325], [330, 332], [333, 331], [330, 331], [333, 332], [332, 334], [335, 333], [335, 334], [334, 336], [337, 335], [337, 336], [336, 338], [339, 337], [339, 338], [338, 340], [341, 339], [341, 340], [340, 330], [331, 341], [331, 337], [342, 344], [345, 343], [342, 343], [345, 344], [344, 346], [347, 345], [347, 346], [346, 348], [349, 347], [349, 348], [348, 350], [351, 349], [351, 350], [350, 352], [353, 351], [353, 352], [352, 342], [343, 353], [343, 349], [354, 356], [357, 355], [354, 355], [357, 356], [356, 358], [359, 357], [359, 358], [358, 360], [361, 359], [361, 360], [360, 362], [363, 361], [363, 362], [362, 364], [365, 363], [365, 364], [364, 354], [355, 365], [355, 361], [366, 367], [367, 368], [368, 369], [369, 370], [366, 371], [371, 372], [372, 373], [373, 374], [374, 375], [371, 376], [376, 377], [377, 378], [378, 379], [379, 380], [376, 381], [381, 382], [382, 383], [383, 384], [384, 385], [381, 386], [366, 370], [387, 388], [388, 389], [389, 390], [384, 389], [391, 392], [392, 393], [393, 394], [394, 395], [386, 391], [396, 397], [397, 398], [398, 399], [399, 400], [396, 401], [401, 402], [402, 403], [403, 404], [367, 372], [401, 406], [406, 407], [407, 408], [387, 392], [409, 410], [406, 411], [411, 412], [412, 413], [407, 412], [414, 415], [411, 416], [416, 417], [368, 373], [418, 419], [419, 420], [404, 409], [386, 387], [408, 409], [423, 424], [424, 425], [369, 424], [408, 413], [369, 374], [389, 394], [370, 425], [409, 414], [370, 375], [390, 395], [371, 375], [410, 415], [385, 390], [391, 396], [366, 421], [372, 377], [413, 414], [392, 397], [412, 417], [373, 378], [405, 410], [393, 398], [413, 418], [374, 379], [386, 390], [394, 399], [414, 419], [375, 380], [395, 400], [376, 380], [415, 420], [396, 400], [417, 418], [416, 420], [406, 410], [416, 421], [377, 382], [367, 422], [397, 402], [417, 422], [378, 383], [398, 403], [418, 423], [379, 384], [399, 404], [391, 395], [419, 424], [380, 385], [421, 422], [400, 405], [381, 385], [420, 425], [401, 405], [422, 423], [421, 425], [411, 415], [382, 387], [368, 423], [402, 407], [388, 393], [404, 405], [383, 388], [403, 408], [428, 426], [426, 427], [427, 429], [429, 428], [432, 428], [429, 433], [433, 432], [430, 432], [433, 431], [431, 430], [426, 430], [431, 427], [436, 434], [434, 435], [435, 437], [437, 436], [440, 436], [437, 441], [441, 440], [438, 440], [441, 439], [439, 438], [434, 438], [439, 435], [444, 442], [442, 443], [443, 445], [445, 444], [448, 444], [445, 449], [449, 448], [446, 448], [449, 447], [447, 446], [442, 446], [447, 443], [450, 451], [452, 453], [454, 455], [456, 457], [460, 461], [461, 451], [453, 455], [457, 459], [458, 459], [450, 452], [454, 456], [458, 460], [451, 453], [455, 457], [459, 461], [450, 460], [452, 454], [456, 458], [462, 455], [461, 462], [462, 457], [459, 462], [462, 453], [451, 462], [466, 465], [463, 468], [465, 464], [467, 466], [464, 463], [468, 467], [467, 450], [465, 454], [464, 456], [460, 468], [466, 452], [463, 458], [469, 468], [469, 467], [466, 469], [465, 469], [469, 464], [469, 463]], \"5\": [[33, 32], [35, 34], [34, 32], [33, 35], [36, 37], [38, 39], [39, 37], [36, 38], [32, 37], [39, 34], [33, 36], [35, 38]], \"6\": [[33, 32], [35, 34], [34, 32], [33, 35], [36, 37], [38, 39], [39, 37], [36, 38], [32, 37], [39, 34], [33, 36], [35, 38]], \"7\": [[190, 195]]}"
			},
			"name":"Scene",
			"nodes":[
				0,
				1,
				2,
				3,
				4,
				5,
				6,
				9
			]
		}
	],
	"nodes":[
		{
			"extras":{
				"ant_landscape":{},
				"gltf_primitive_index":0
			},
			"mesh":0,
			"name":"wheel_front_right",
			"translation":[
				-0.6384225487709045,
				0.2928940951824188,
				1.2603940963745117
			]
		},
		{
			"extras":{
				"ant_landscape":{},
				"gltf_primitive_index":1
			},
			"mesh":1,
			"name":"wheel_front_left",
			"translation":[
				0.7075686454772949,
				0.29289406538009644,
				1.2603939771652222
			]
		},
		{
			"extras":{
				"ant_landscape":{},
				"gltf_primitive_index":2
			},
			"mesh":2,
			"name":"wheel_back_right",
			"translation":[
				-0.6384226083755493,
				0.2928940951824188,
				-1.1937828063964844
			]
		},
		{
			"extras":{
				"ant_landscape":{},
				"gltf_primitive_index":4
			},
			"mesh":3,
			"name":"interior",
			"translation":[
				0.427177757024765,
				0.6375842094421387,
				-0.3924334645271301
			]
		},
		{
			"extras":{
				"ant_landscape":{},
				"gltf_primitive_index":5
			},
			"mesh":4,
			"name":"door_right",
			"translation":[
				-0.14990311861038208,
				1.128414511680603,
				-0.3710540533065796
			]
		},
		{
			"extras":{
				"ant_landscape":{},
				"gltf_primitive_index":6
			},
			"mesh":5,
			"name":"door_left",
			"translation":[
				0.21904930472373962,
				1.1284147500991821,
				-0.37105411291122437
			]
		},
		{
			"extras":{
				"ant_landscape":{},
				"gltf_primitive_index":7
			},
			"mesh":6,
			"name":"car_body"
		},
		{
			"extras":{
				"ant_landscape":{},
				"gltf_primitive_index":3
			},
			"mesh":7,
			"name":"wheel_back_left",
			"translation":[
				-0.10065865516662598,
				-4.172325134277344e-07,
				0
			]
		},
		{
			"children":[
				7
			],
			"name":"Bone"
		},
		{
			"children":[
				8
			],
			"name":"Armature",
			"translation":[
				0.8082273006439209,
				0.29289448261260986,
				-1.1937826871871948
			]
		}
	],
	"animations":[
		{
			"channels":[
				{
					"sampler":0,
					"target":{
						"node":8,
						"path":"translation"
					}
				},
				{
					"sampler":1,
					"target":{
						"node":8,
						"path":"rotation"
					}
				},
				{
					"sampler":2,
					"target":{
						"node":8,
						"path":"scale"
					}
				},
				{
					"sampler":3,
					"target":{
						"node":9,
						"path":"rotation"
					}
				}
			],
			"name":"ArmatureAction",
			"samplers":[
				{
					"input":39,
					"interpolation":"STEP",
					"output":40
				},
				{
					"input":39,
					"interpolation":"STEP",
					"output":41
				},
				{
					"input":39,
					"interpolation":"STEP",
					"output":42
				},
				{
					"input":43,
					"interpolation":"LINEAR",
					"output":44
				}
			]
		}
	],
	"materials":[
		{
			"doubleSided":true,
			"extensions":{
				"KHR_materials_specular":{
					"specularFactor":0
				},
				"KHR_materials_ior":{
					"ior":1.4500000476837158
				}
			},
			"name":"MAIN",
			"pbrMetallicRoughness":{
				"baseColorTexture":{
					"index":0
				},
				"metallicFactor":0.5,
				"roughnessFactor":0.5
			}
		}
	],
	"meshes":[
		{
			"name":"Circle.185",
			"primitives":[
				{
					"attributes":{
						"_VERT_INDEX":0,
						"POSITION":1,
						"NORMAL":2,
						"TEXCOORD_0":3
					},
					"indices":4,
					"material":0
				}
			]
		},
		{
			"name":"Circle.186",
			"primitives":[
				{
					"attributes":{
						"_VERT_INDEX":5,
						"POSITION":6,
						"NORMAL":7,
						"TEXCOORD_0":8
					},
					"indices":9,
					"material":0
				}
			]
		},
		{
			"name":"Circle.187",
			"primitives":[
				{
					"attributes":{
						"_VERT_INDEX":10,
						"POSITION":11,
						"NORMAL":12,
						"TEXCOORD_0":13
					},
					"indices":4,
					"material":0
				}
			]
		},
		{
			"name":"Torus.017",
			"primitives":[
				{
					"attributes":{
						"_VERT_INDEX":14,
						"POSITION":15,
						"NORMAL":16,
						"TEXCOORD_0":17,
						"TEXCOORD_1":18
					},
					"indices":19,
					"material":0
				}
			]
		},
		{
			"name":"Cube.249",
			"primitives":[
				{
					"attributes":{
						"_VERT_INDEX":20,
						"POSITION":21,
						"NORMAL":22,
						"TEXCOORD_0":23
					},
					"indices":24,
					"material":0
				}
			]
		},
		{
			"name":"Cube.250",
			"primitives":[
				{
					"attributes":{
						"_VERT_INDEX":25,
						"POSITION":26,
						"NORMAL":27,
						"TEXCOORD_0":28
					},
					"indices":29,
					"material":0
				}
			]
		},
		{
			"name":"Cube.251",
			"primitives":[
				{
					"attributes":{
						"_VERT_INDEX":30,
						"POSITION":31,
						"NORMAL":32,
						"TEXCOORD_0":33
					},
					"indices":34,
					"material":0
				}
			]
		},
		{
			"name":"Circle.188",
			"primitives":[
				{
					"attributes":{
						"_VERT_INDEX":35,
						"POSITION":36,
						"NORMAL":37,
						"TEXCOORD_0":38
					},
					"indices":9,
					"material":0
				}
			]
		}
	],
	"textures":[
		{
			"sampler":0,
			"source":0
		}
	],
	"images":[
		{
			"mimeType":"image/png",
			"name":"001_COLOR_BASIC",
			"uri":"001_COLOR_BASIC.png"
		}
	],
	"skins":[
		{
			"inverseBindMatrices":45,
			"joints":[
				8
			],
			"name":"Armature"
		}
	],
	"accessors":[
		{
			"bufferView":0,
			"componentType":5126,
			"count":323,
			"type":"SCALAR"
		},
		{
			"bufferView":1,
			"componentType":5126,
			"count":323,
			"max":[
				0.10622435808181763,
				0.2953856885433197,
				0.2953856587409973
			],
			"min":[
				-0.10622435808181763,
				-0.2953856885433197,
				-0.2953856587409973
			],
			"type":"VEC3"
		},
		{
			"bufferView":2,
			"componentType":5126,
			"count":323,
			"type":"VEC3"
		},
		{
			"bufferView":3,
			"componentType":5126,
			"count":323,
			"type":"VEC2"
		},
		{
			"bufferView":4,
			"componentType":5123,
			"count":1020,
			"type":"SCALAR"
		},
		{
			"bufferView":5,
			"componentType":5126,
			"count":323,
			"type":"SCALAR"
		},
		{
			"bufferView":6,
			"componentType":5126,
			"count":323,
			"max":[
				0.10622435808181763,
				0.2953856587409973,
				0.2953856587409973
			],
			"min":[
				-0.10622435808181763,
				-0.2953856587409973,
				-0.2953856587409973
			],
			"type":"VEC3"
		},
		{
			"bufferView":7,
			"componentType":5126,
			"count":323,
			"type":"VEC3"
		},
		{
			"bufferView":8,
			"componentType":5126,
			"count":323,
			"type":"VEC2"
		},
		{
			"bufferView":9,
			"componentType":5123,
			"count":1020,
			"type":"SCALAR"
		},
		{
			"bufferView":10,
			"componentType":5126,
			"count":323,
			"type":"SCALAR"
		},
		{
			"bufferView":11,
			"componentType":5126,
			"count":323,
			"max":[
				0.1062244176864624,
				0.2953856885433197,
				0.2953856587409973
			],
			"min":[
				-0.10622429847717285,
				-0.2953856885433197,
				-0.2953856587409973
			],
			"type":"VEC3"
		},
		{
			"bufferView":12,
			"componentType":5126,
			"count":323,
			"type":"VEC3"
		},
		{
			"bufferView":13,
			"componentType":5126,
			"count":323,
			"type":"VEC2"
		},
		{
			"bufferView":14,
			"componentType":5126,
			"count":1333,
			"type":"SCALAR"
		},
		{
			"bufferView":15,
			"componentType":5126,
			"count":1333,
			"max":[
				0.28888413310050964,
				0.31188133358955383,
				1.1780861616134644
			],
			"min":[
				-1.0770280361175537,
				-0.4624020457267761,
				-0.23092232644557953
			],
			"type":"VEC3"
		},
		{
			"bufferView":16,
			"componentType":5126,
			"count":1333,
			"type":"VEC3"
		},
		{
			"bufferView":17,
			"componentType":5126,
			"count":1333,
			"type":"VEC2"
		},
		{
			"bufferView":18,
			"componentType":5126,
			"count":1333,
			"type":"VEC2"
		},
		{
			"bufferView":19,
			"componentType":5123,
			"count":2136,
			"type":"SCALAR"
		},
		{
			"bufferView":20,
			"componentType":5126,
			"count":249,
			"type":"SCALAR"
		},
		{
			"bufferView":21,
			"componentType":5126,
			"count":249,
			"max":[
				1.429399344488047e-05,
				1.1920928955078125e-07,
				1.0433309078216553
			],
			"min":[
				-0.7180023789405823,
				-0.8481886386871338,
				-0.3596787452697754
			],
			"type":"VEC3"
		},
		{
			"bufferView":22,
			"componentType":5126,
			"count":249,
			"type":"VEC3"
		},
		{
			"bufferView":23,
			"componentType":5126,
			"count":249,
			"type":"VEC2"
		},
		{
			"bufferView":24,
			"componentType":5123,
			"count":426,
			"type":"SCALAR"
		},
		{
			"bufferView":25,
			"componentType":5126,
			"count":249,
			"type":"SCALAR"
		},
		{
			"bufferView":26,
			"componentType":5126,
			"count":249,
			"max":[
				0.7180023789405823,
				-5.960464477539063e-08,
				1.0433311462402344
			],
			"min":[
				-1.429399344488047e-05,
				-0.8481888771057129,
				-0.359678715467453
			],
			"type":"VEC3"
		},
		{
			"bufferView":27,
			"componentType":5126,
			"count":249,
			"type":"VEC3"
		},
		{
			"bufferView":28,
			"componentType":5126,
			"count":249,
			"type":"VEC2"
		},
		{
			"bufferView":29,
			"componentType":5123,
			"count":426,
			"type":"SCALAR"
		},
		{
			"bufferView":30,
			"componentType":5126,
			"count":2975,
			"type":"SCALAR"
		},
		{
			"bufferView":31,
			"componentType":5126,
			"count":2975,
			"max":[
				0.8495120406150818,
				1.1284147500991821,
				2.1086137294769287
			],
			"min":[
				-0.7803658843040466,
				0.16083066165447235,
				-2.110600471496582
			],
			"type":"VEC3"
		},
		{
			"bufferView":32,
			"componentType":5126,
			"count":2975,
			"type":"VEC3"
		},
		{
			"bufferView":33,
			"componentType":5126,
			"count":2975,
			"type":"VEC2"
		},
		{
			"bufferView":34,
			"componentType":5123,
			"count":4872,
			"type":"SCALAR"
		},
		{
			"bufferView":35,
			"componentType":5126,
			"count":323,
			"type":"SCALAR"
		},
		{
			"bufferView":36,
			"componentType":5126,
			"count":323,
			"max":[
				0.10622435808181763,
				0.2953856587409973,
				0.2953856587409973
			],
			"min":[
				-0.10622435808181763,
				-0.2953856587409973,
				-0.2953856587409973
			],
			"type":"VEC3"
		},
		{
			"bufferView":37,
			"componentType":5126,
			"count":323,
			"type":"VEC3"
		},
		{
			"bufferView":38,
			"componentType":5126,
			"count":323,
			"type":"VEC2"
		},
		{
			"bufferView":39,
			"componentType":5126,
			"count":2,
			"max":[
				0.4166666666666667
			],
			"min":[
				0.041666666666666664
			],
			"type":"SCALAR"
		},
		{
			"bufferView":40,
			"componentType":5126,
			"count":2,
			"type":"VEC3"
		},
		{
			"bufferView":41,
			"componentType":5126,
			"count":2,
			"type":"VEC4"
		},
		{
			"bufferView":42,
			"componentType":5126,
			"count":2,
			"type":"VEC3"
		},
		{
			"bufferView":43,
			"componentType":5126,
			"count":10,
			"max":[
				0.4166666666666667
			],
			"min":[
				0.041666666666666664
			],
			"type":"SCALAR"
		},
		{
			"bufferView":44,
			"componentType":5126,
			"count":10,
			"type":"VEC4"
		},
		{
			"bufferView":45,
			"componentType":5126,
			"count":1,
			"type":"MAT4"
		}
	],
	"bufferViews":[
		{
			"buffer":0,
			"byteLength":1292,
			"byteOffset":0,
			"target":34962
		},
		{
			"buffer":0,
			"byteLength":3876,
			"byteOffset":1292,
			"target":34962
		},
		{
			"buffer":0,
			"byteLength":3876,
			"byteOffset":5168,
			"target":34962
		},
		{
			"buffer":0,
			"byteLength":2584,
			"byteOffset":9044,
			"target":34962
		},
		{
			"buffer":0,
			"byteLength":2040,
			"byteOffset":11628,
			"target":34963
		},
		{
			"buffer":0,
			"byteLength":1292,
			"byteOffset":13668,
			"target":34962
		},
		{
			"buffer":0,
			"byteLength":3876,
			"byteOffset":14960,
			"target":34962
		},
		{
			"buffer":0,
			"byteLength":3876,
			"byteOffset":18836,
			"target":34962
		},
		{
			"buffer":0,
			"byteLength":2584,
			"byteOffset":22712,
			"target":34962
		},
		{
			"buffer":0,
			"byteLength":2040,
			"byteOffset":25296,
			"target":34963
		},
		{
			"buffer":0,
			"byteLength":1292,
			"byteOffset":27336,
			"target":34962
		},
		{
			"buffer":0,
			"byteLength":3876,
			"byteOffset":28628,
			"target":34962
		},
		{
			"buffer":0,
			"byteLength":3876,
			"byteOffset":32504,
			"target":34962
		},
		{
			"buffer":0,
			"byteLength":2584,
			"byteOffset":36380,
			"target":34962
		},
		{
			"buffer":0,
			"byteLength":5332,
			"byteOffset":38964,
			"target":34962
		},
		{
			"buffer":0,
			"byteLength":15996,
			"byteOffset":44296,
			"target":34962
		},
		{
			"buffer":0,
			"byteLength":15996,
			"byteOffset":60292,
			"target":34962
		},
		{
			"buffer":0,
			"byteLength":10664,
			"byteOffset":76288,
			"target":34962
		},
		{
			"buffer":0,
			"byteLength":10664,
			"byteOffset":86952,
			"target":34962
		},
		{
			"buffer":0,
			"byteLength":4272,
			"byteOffset":97616,
			"target":34963
		},
		{
			"buffer":0,
			"byteLength":996,
			"byteOffset":101888,
			"target":34962
		},
		{
			"buffer":0,
			"byteLength":2988,
			"byteOffset":102884,
			"target":34962
		},
		{
			"buffer":0,
			"byteLength":2988,
			"byteOffset":105872,
			"target":34962
		},
		{
			"buffer":0,
			"byteLength":1992,
			"byteOffset":108860,
			"target":34962
		},
		{
			"buffer":0,
			"byteLength":852,
			"byteOffset":110852,
			"target":34963
		},
		{
			"buffer":0,
			"byteLength":996,
			"byteOffset":111704,
			"target":34962
		},
		{
			"buffer":0,
			"byteLength":2988,
			"byteOffset":112700,
			"target":34962
		},
		{
			"buffer":0,
			"byteLength":2988,
			"byteOffset":115688,
			"target":34962
		},
		{
			"buffer":0,
			"byteLength":1992,
			"byteOffset":118676,
			"target":34962
		},
		{
			"buffer":0,
			"byteLength":852,
			"byteOffset":120668,
			"target":34963
		},
		{
			"buffer":0,
			"byteLength":11900,
			"byteOffset":121520,
			"target":34962
		},
		{
			"buffer":0,
			"byteLength":35700,
			"byteOffset":133420,
			"target":34962
		},
		{
			"buffer":0,
			"byteLength":35700,
			"byteOffset":169120,
			"target":34962
		},
		{
			"buffer":0,
			"byteLength":23800,
			"byteOffset":204820,
			"target":34962
		},
		{
			"buffer":0,
			"byteLength":9744,
			"byteOffset":228620,
			"target":34963
		},
		{
			"buffer":0,
			"byteLength":1292,
			"byteOffset":238364,
			"target":34962
		},
		{
			"buffer":0,
			"byteLength":3876,
			"byteOffset":239656,
			"target":34962
		},
		{
			"buffer":0,
			"byteLength":3876,
			"byteOffset":243532,
			"target":34962
		},
		{
			"buffer":0,
			"byteLength":2584,
			"byteOffset":247408,
			"target":34962
		},
		{
			"buffer":0,
			"byteLength":8,
			"byteOffset":249992
		},
		{
			"buffer":0,
			"byteLength":24,
			"byteOffset":250000
		},
		{
			"buffer":0,
			"byteLength":32,
			"byteOffset":250024
		},
		{
			"buffer":0,
			"byteLength":24,
			"byteOffset":250056
		},
		{
			"buffer":0,
			"byteLength":40,
			"byteOffset":250080
		},
		{
			"buffer":0,
			"byteLength":160,
			"byteOffset":250120
		},
		{
			"buffer":0,
			"byteLength":64,
			"byteOffset":250280
		}
	],
	"samplers":[
		{
			"magFilter":9729,
			"minFilter":9987
		}
	],
	"buffers":[
		{
			"byteLength":250344,
			"uri":"coupe.bin"
		}
	]
}
