{
	"asset":{
		"generator":"Khronos glTF Blender I/O v4.1.63",
		"version":"2.0"
	},
	"extensionsUsed":[
		"KHR_materials_specular",
		"KHR_materials_ior",
		"KHR_materials_transmission",
		"KHR_materials_clearcoat",
		"KHR_materials_sheen"
	],
	"scene":0,
	"scenes":[
		{
			"name":"Scene",
			"nodes":[
				0,
				1,
				2,
				3,
				4,
				6,
				8,
				11
			]
		}
	],
	"nodes":[
		{
			"mesh":0,
			"name":"wheel_front_right",
			"translation":[
				-0.6384225487709045,
				0.2928940951824188,
				1.2603940963745117
			]
		},
		{
			"mesh":1,
			"name":"wheel_front_left",
			"translation":[
				0.7075686454772949,
				0.29289406538009644,
				1.2603939771652222
			]
		},
		{
			"mesh":2,
			"name":"wheel_back_right",
			"translation":[
				-0.6384226083755493,
				0.2928940951824188,
				-1.1937828063964844
			]
		},
		{
			"mesh":3,
			"name":"wheel_back_left",
			"translation":[
				0.7075686454772949,
				0.29289406538009644,
				-1.1937826871871948
			]
		},
		{
			"mesh":4,
			"name":"interior",
			"translation":[
				0.427177757024765,
				0.6375842094421387,
				-0.3924334645271301
			]
		},
		{
			"mesh":5,
			"name":"door_window_right",
			"translation":[
				-0.4599097967147827,
				-0.19971537590026855,
				0.2859798073768616
			]
		},
		{
			"children":[
				5
			],
			"mesh":6,
			"name":"door_right",
			"translation":[
				-0.14990311861038208,
				1.128414511680603,
				-0.3710540533065796
			]
		},
		{
			"mesh":7,
			"name":"door_window_left",
			"translation":[
				0.4599098861217499,
				-0.19971555471420288,
				0.28597989678382874
			]
		},
		{
			"children":[
				7
			],
			"mesh":8,
			"name":"door_left",
			"translation":[
				0.21904930472373962,
				1.1284147500991821,
				-0.37105411291122437
			]
		},
		{
			"mesh":9,
			"name":"window_front",
			"translation":[
				0.03457307815551758,
				0.9447721242904663,
				0.3618030250072479
			]
		},
		{
			"mesh":10,
			"name":"windows_black",
			"translation":[
				0.03457307815551758,
				0.9298476576805115,
				-1.450289011001587
			]
		},
		{
			"children":[
				9,
				10
			],
			"mesh":11,
			"name":"car_body"
		}
	],
	"animations":[
		{
			"channels":[
				{
					"sampler":0,
					"target":{
						"node":3,
						"path":"rotation"
					}
				}
			],
			"name":"wheel_back_leftAction",
			"samplers":[
				{
					"input":47,
					"interpolation":"LINEAR",
					"output":48
				}
			]
		}
	],
	"materials":[
		{
			"doubleSided":true,
			"extensions":{
				"KHR_materials_specular":{
					"specularFactor":0
				},
				"KHR_materials_ior":{
					"ior":1.4500000476837158
				}
			},
			"name":"MAIN",
			"pbrMetallicRoughness":{
				"baseColorTexture":{
					"index":0
				},
				"metallicFactor":0.5,
				"roughnessFactor":0.5
			}
		},
		{
			"alphaMode":"BLEND",
			"doubleSided":true,
			"extensions":{
				"KHR_materials_transmission":{
					"transmissionFactor":0.949999988079071
				},
				"KHR_materials_specular":{
					"specularFactor":0
				},
				"KHR_materials_ior":{
					"ior":1
				}
			},
			"name":"WINDOW",
			"pbrMetallicRoughness":{
				"baseColorTexture":{
					"index":1
				},
				"metallicFactor":0,
				"roughnessFactor":0
			}
		},
		{
			"alphaMode":"BLEND",
			"doubleSided":true,
			"extensions":{
				"KHR_materials_clearcoat":{
					"clearcoatFactor":0.07222727686166763,
					"clearcoatRoughnessFactor":0.8665454387664795
				},
				"KHR_materials_transmission":{
					"transmissionFactor":0.949999988079071
				},
				"KHR_materials_specular":{
					"specularFactor":0
				},
				"KHR_materials_sheen":{
					"sheenColorFactor":[
						1.0,
						1.0,
						1.0
					],
					"sheenRoughnessFactor":0.5
				},
				"KHR_materials_ior":{
					"ior":1
				}
			},
			"name":"WINDOW BLACK",
			"pbrMetallicRoughness":{
				"baseColorTexture":{
					"index":2
				},
				"metallicFactor":0,
				"roughnessFactor":0
			}
		}
	],
	"meshes":[
		{
			"name":"Circle.185",
			"primitives":[
				{
					"attributes":{
						"POSITION":0,
						"NORMAL":1,
						"TEXCOORD_0":2
					},
					"indices":3,
					"material":0
				}
			]
		},
		{
			"name":"Circle.186",
			"primitives":[
				{
					"attributes":{
						"POSITION":4,
						"NORMAL":5,
						"TEXCOORD_0":6
					},
					"indices":7,
					"material":0
				}
			]
		},
		{
			"name":"Circle.187",
			"primitives":[
				{
					"attributes":{
						"POSITION":8,
						"NORMAL":9,
						"TEXCOORD_0":10
					},
					"indices":3,
					"material":0
				}
			]
		},
		{
			"name":"Circle.188",
			"primitives":[
				{
					"attributes":{
						"POSITION":11,
						"NORMAL":12,
						"TEXCOORD_0":13
					},
					"indices":7,
					"material":0
				}
			]
		},
		{
			"name":"Torus.017",
			"primitives":[
				{
					"attributes":{
						"POSITION":14,
						"NORMAL":15,
						"TEXCOORD_0":16,
						"TEXCOORD_1":17
					},
					"indices":18,
					"material":0
				}
			]
		},
		{
			"name":"Cube.247",
			"primitives":[
				{
					"attributes":{
						"POSITION":19,
						"NORMAL":20,
						"TEXCOORD_0":21
					},
					"indices":22,
					"material":1
				}
			]
		},
		{
			"name":"Cube.249",
			"primitives":[
				{
					"attributes":{
						"POSITION":23,
						"NORMAL":24,
						"TEXCOORD_0":25
					},
					"indices":26,
					"material":0
				}
			]
		},
		{
			"name":"Cube.248",
			"primitives":[
				{
					"attributes":{
						"POSITION":27,
						"NORMAL":28,
						"TEXCOORD_0":29
					},
					"indices":30,
					"material":1
				}
			]
		},
		{
			"name":"Cube.250",
			"primitives":[
				{
					"attributes":{
						"POSITION":31,
						"NORMAL":32,
						"TEXCOORD_0":33
					},
					"indices":34,
					"material":0
				}
			]
		},
		{
			"name":"Cube.246",
			"primitives":[
				{
					"attributes":{
						"POSITION":35,
						"NORMAL":36,
						"TEXCOORD_0":37
					},
					"indices":38,
					"material":1
				}
			]
		},
		{
			"name":"Cube.201",
			"primitives":[
				{
					"attributes":{
						"POSITION":39,
						"NORMAL":40,
						"TEXCOORD_0":41
					},
					"indices":42,
					"material":2
				}
			]
		},
		{
			"name":"Cube.251",
			"primitives":[
				{
					"attributes":{
						"POSITION":43,
						"NORMAL":44,
						"TEXCOORD_0":45
					},
					"indices":46,
					"material":0
				}
			]
		}
	],
	"textures":[
		{
			"sampler":0,
			"source":0
		},
		{
			"sampler":0,
			"source":0
		},
		{
			"sampler":0,
			"source":0
		}
	],
	"images":[
		{
			"mimeType":"image/png",
			"name":"001_COLOR_BASIC",
			"uri":"001_COLOR_BASIC.png"
		}
	],
	"accessors":[
		{
			"bufferView":0,
			"componentType":5126,
			"count":323,
			"max":[
				0.10622435808181763,
				0.2953856885433197,
				0.2953856587409973
			],
			"min":[
				-0.10622435808181763,
				-0.2953856885433197,
				-0.2953856587409973
			],
			"type":"VEC3"
		},
		{
			"bufferView":1,
			"componentType":5126,
			"count":323,
			"type":"VEC3"
		},
		{
			"bufferView":2,
			"componentType":5126,
			"count":323,
			"type":"VEC2"
		},
		{
			"bufferView":3,
			"componentType":5123,
			"count":1020,
			"type":"SCALAR"
		},
		{
			"bufferView":4,
			"componentType":5126,
			"count":323,
			"max":[
				0.10622435808181763,
				0.2953856587409973,
				0.2953856587409973
			],
			"min":[
				-0.10622435808181763,
				-0.2953856587409973,
				-0.2953856587409973
			],
			"type":"VEC3"
		},
		{
			"bufferView":5,
			"componentType":5126,
			"count":323,
			"type":"VEC3"
		},
		{
			"bufferView":6,
			"componentType":5126,
			"count":323,
			"type":"VEC2"
		},
		{
			"bufferView":7,
			"componentType":5123,
			"count":1020,
			"type":"SCALAR"
		},
		{
			"bufferView":8,
			"componentType":5126,
			"count":323,
			"max":[
				0.1062244176864624,
				0.2953856885433197,
				0.2953856587409973
			],
			"min":[
				-0.10622429847717285,
				-0.2953856885433197,
				-0.2953856587409973
			],
			"type":"VEC3"
		},
		{
			"bufferView":9,
			"componentType":5126,
			"count":323,
			"type":"VEC3"
		},
		{
			"bufferView":10,
			"componentType":5126,
			"count":323,
			"type":"VEC2"
		},
		{
			"bufferView":11,
			"componentType":5126,
			"count":323,
			"max":[
				0.10622435808181763,
				0.2953856587409973,
				0.2953856587409973
			],
			"min":[
				-0.10622435808181763,
				-0.2953856587409973,
				-0.2953856587409973
			],
			"type":"VEC3"
		},
		{
			"bufferView":12,
			"componentType":5126,
			"count":323,
			"type":"VEC3"
		},
		{
			"bufferView":13,
			"componentType":5126,
			"count":323,
			"type":"VEC2"
		},
		{
			"bufferView":14,
			"componentType":5126,
			"count":1333,
			"max":[
				0.28888413310050964,
				0.31188133358955383,
				1.1780861616134644
			],
			"min":[
				-1.0770280361175537,
				-0.4624020457267761,
				-0.23092232644557953
			],
			"type":"VEC3"
		},
		{
			"bufferView":15,
			"componentType":5126,
			"count":1333,
			"type":"VEC3"
		},
		{
			"bufferView":16,
			"componentType":5126,
			"count":1333,
			"type":"VEC2"
		},
		{
			"bufferView":17,
			"componentType":5126,
			"count":1333,
			"type":"VEC2"
		},
		{
			"bufferView":18,
			"componentType":5123,
			"count":2136,
			"type":"SCALAR"
		},
		{
			"bufferView":19,
			"componentType":5126,
			"count":5,
			"max":[
				0.08283301442861557,
				0.1253143548965454,
				0.5520043969154358
			],
			"min":[
				-0.08283307403326035,
				-0.1253143548965454,
				-0.5520043969154358
			],
			"type":"VEC3"
		},
		{
			"bufferView":20,
			"componentType":5126,
			"count":5,
			"type":"VEC3"
		},
		{
			"bufferView":21,
			"componentType":5126,
			"count":5,
			"type":"VEC2"
		},
		{
			"bufferView":22,
			"componentType":5123,
			"count":9,
			"type":"SCALAR"
		},
		{
			"bufferView":23,
			"componentType":5126,
			"count":249,
			"max":[
				1.429399344488047e-05,
				1.1920928955078125e-07,
				1.0433309078216553
			],
			"min":[
				-0.7180023789405823,
				-0.8481886386871338,
				-0.3596787452697754
			],
			"type":"VEC3"
		},
		{
			"bufferView":24,
			"componentType":5126,
			"count":249,
			"type":"VEC3"
		},
		{
			"bufferView":25,
			"componentType":5126,
			"count":249,
			"type":"VEC2"
		},
		{
			"bufferView":26,
			"componentType":5123,
			"count":426,
			"type":"SCALAR"
		},
		{
			"bufferView":27,
			"componentType":5126,
			"count":5,
			"max":[
				0.08283307403326035,
				0.1253143697977066,
				0.5520043969154358
			],
			"min":[
				-0.08283307403326035,
				-0.1253143697977066,
				-0.5520043969154358
			],
			"type":"VEC3"
		},
		{
			"bufferView":28,
			"componentType":5126,
			"count":5,
			"type":"VEC3"
		},
		{
			"bufferView":29,
			"componentType":5126,
			"count":5,
			"type":"VEC2"
		},
		{
			"bufferView":30,
			"componentType":5123,
			"count":9,
			"type":"SCALAR"
		},
		{
			"bufferView":31,
			"componentType":5126,
			"count":249,
			"max":[
				0.7180023789405823,
				-5.960464477539063e-08,
				1.0433311462402344
			],
			"min":[
				-1.429399344488047e-05,
				-0.8481888771057129,
				-0.359678715467453
			],
			"type":"VEC3"
		},
		{
			"bufferView":32,
			"componentType":5126,
			"count":249,
			"type":"VEC3"
		},
		{
			"bufferView":33,
			"componentType":5126,
			"count":249,
			"type":"VEC2"
		},
		{
			"bufferView":34,
			"componentType":5123,
			"count":426,
			"type":"SCALAR"
		},
		{
			"bufferView":35,
			"componentType":5126,
			"count":4,
			"max":[
				0.6954387426376343,
				0.15404081344604492,
				0.33650508522987366
			],
			"min":[
				-0.6954387426376343,
				-0.15404075384140015,
				-0.33650505542755127
			],
			"type":"VEC3"
		},
		{
			"bufferView":36,
			"componentType":5126,
			"count":4,
			"type":"VEC3"
		},
		{
			"bufferView":37,
			"componentType":5126,
			"count":4,
			"type":"VEC2"
		},
		{
			"bufferView":38,
			"componentType":5123,
			"count":6,
			"type":"SCALAR"
		},
		{
			"bufferView":39,
			"componentType":5126,
			"count":12,
			"max":[
				0.7165327668190002,
				0.13193917274475098,
				0.5135270357131958
			],
			"min":[
				-0.7165327668190002,
				-0.13193917274475098,
				-0.5135269165039062
			],
			"type":"VEC3"
		},
		{
			"bufferView":40,
			"componentType":5126,
			"count":12,
			"type":"VEC3"
		},
		{
			"bufferView":41,
			"componentType":5126,
			"count":12,
			"type":"VEC2"
		},
		{
			"bufferView":42,
			"componentType":5123,
			"count":18,
			"type":"SCALAR"
		},
		{
			"bufferView":43,
			"componentType":5126,
			"count":1330,
			"max":[
				0.8495120406150818,
				1.1284147500991821,
				2.1086137294769287
			],
			"min":[
				-0.7803658843040466,
				0.16083066165447235,
				-2.110600471496582
			],
			"type":"VEC3"
		},
		{
			"bufferView":44,
			"componentType":5126,
			"count":1330,
			"type":"VEC3"
		},
		{
			"bufferView":45,
			"componentType":5126,
			"count":1330,
			"type":"VEC2"
		},
		{
			"bufferView":46,
			"componentType":5123,
			"count":4872,
			"type":"SCALAR"
		},
		{
			"bufferView":47,
			"componentType":5126,
			"count":11,
			"max":[
				0.4166666666666667
			],
			"min":[
				0
			],
			"type":"SCALAR"
		},
		{
			"bufferView":48,
			"componentType":5126,
			"count":11,
			"type":"VEC4"
		}
	],
	"bufferViews":[
		{
			"buffer":0,
			"byteLength":3876,
			"byteOffset":0,
			"target":34962
		},
		{
			"buffer":0,
			"byteLength":3876,
			"byteOffset":3876,
			"target":34962
		},
		{
			"buffer":0,
			"byteLength":2584,
			"byteOffset":7752,
			"target":34962
		},
		{
			"buffer":0,
			"byteLength":2040,
			"byteOffset":10336,
			"target":34963
		},
		{
			"buffer":0,
			"byteLength":3876,
			"byteOffset":12376,
			"target":34962
		},
		{
			"buffer":0,
			"byteLength":3876,
			"byteOffset":16252,
			"target":34962
		},
		{
			"buffer":0,
			"byteLength":2584,
			"byteOffset":20128,
			"target":34962
		},
		{
			"buffer":0,
			"byteLength":2040,
			"byteOffset":22712,
			"target":34963
		},
		{
			"buffer":0,
			"byteLength":3876,
			"byteOffset":24752,
			"target":34962
		},
		{
			"buffer":0,
			"byteLength":3876,
			"byteOffset":28628,
			"target":34962
		},
		{
			"buffer":0,
			"byteLength":2584,
			"byteOffset":32504,
			"target":34962
		},
		{
			"buffer":0,
			"byteLength":3876,
			"byteOffset":35088,
			"target":34962
		},
		{
			"buffer":0,
			"byteLength":3876,
			"byteOffset":38964,
			"target":34962
		},
		{
			"buffer":0,
			"byteLength":2584,
			"byteOffset":42840,
			"target":34962
		},
		{
			"buffer":0,
			"byteLength":15996,
			"byteOffset":45424,
			"target":34962
		},
		{
			"buffer":0,
			"byteLength":15996,
			"byteOffset":61420,
			"target":34962
		},
		{
			"buffer":0,
			"byteLength":10664,
			"byteOffset":77416,
			"target":34962
		},
		{
			"buffer":0,
			"byteLength":10664,
			"byteOffset":88080,
			"target":34962
		},
		{
			"buffer":0,
			"byteLength":4272,
			"byteOffset":98744,
			"target":34963
		},
		{
			"buffer":0,
			"byteLength":60,
			"byteOffset":103016,
			"target":34962
		},
		{
			"buffer":0,
			"byteLength":60,
			"byteOffset":103076,
			"target":34962
		},
		{
			"buffer":0,
			"byteLength":40,
			"byteOffset":103136,
			"target":34962
		},
		{
			"buffer":0,
			"byteLength":18,
			"byteOffset":103176,
			"target":34963
		},
		{
			"buffer":0,
			"byteLength":2988,
			"byteOffset":103196,
			"target":34962
		},
		{
			"buffer":0,
			"byteLength":2988,
			"byteOffset":106184,
			"target":34962
		},
		{
			"buffer":0,
			"byteLength":1992,
			"byteOffset":109172,
			"target":34962
		},
		{
			"buffer":0,
			"byteLength":852,
			"byteOffset":111164,
			"target":34963
		},
		{
			"buffer":0,
			"byteLength":60,
			"byteOffset":112016,
			"target":34962
		},
		{
			"buffer":0,
			"byteLength":60,
			"byteOffset":112076,
			"target":34962
		},
		{
			"buffer":0,
			"byteLength":40,
			"byteOffset":112136,
			"target":34962
		},
		{
			"buffer":0,
			"byteLength":18,
			"byteOffset":112176,
			"target":34963
		},
		{
			"buffer":0,
			"byteLength":2988,
			"byteOffset":112196,
			"target":34962
		},
		{
			"buffer":0,
			"byteLength":2988,
			"byteOffset":115184,
			"target":34962
		},
		{
			"buffer":0,
			"byteLength":1992,
			"byteOffset":118172,
			"target":34962
		},
		{
			"buffer":0,
			"byteLength":852,
			"byteOffset":120164,
			"target":34963
		},
		{
			"buffer":0,
			"byteLength":48,
			"byteOffset":121016,
			"target":34962
		},
		{
			"buffer":0,
			"byteLength":48,
			"byteOffset":121064,
			"target":34962
		},
		{
			"buffer":0,
			"byteLength":32,
			"byteOffset":121112,
			"target":34962
		},
		{
			"buffer":0,
			"byteLength":12,
			"byteOffset":121144,
			"target":34963
		},
		{
			"buffer":0,
			"byteLength":144,
			"byteOffset":121156,
			"target":34962
		},
		{
			"buffer":0,
			"byteLength":144,
			"byteOffset":121300,
			"target":34962
		},
		{
			"buffer":0,
			"byteLength":96,
			"byteOffset":121444,
			"target":34962
		},
		{
			"buffer":0,
			"byteLength":36,
			"byteOffset":121540,
			"target":34963
		},
		{
			"buffer":0,
			"byteLength":15960,
			"byteOffset":121576,
			"target":34962
		},
		{
			"buffer":0,
			"byteLength":15960,
			"byteOffset":137536,
			"target":34962
		},
		{
			"buffer":0,
			"byteLength":10640,
			"byteOffset":153496,
			"target":34962
		},
		{
			"buffer":0,
			"byteLength":9744,
			"byteOffset":164136,
			"target":34963
		},
		{
			"buffer":0,
			"byteLength":44,
			"byteOffset":173880
		},
		{
			"buffer":0,
			"byteLength":176,
			"byteOffset":173924
		}
	],
	"samplers":[
		{
			"magFilter":9729,
			"minFilter":9987
		}
	],
	"buffers":[
		{
			"byteLength":174100,
			"uri":"coupe.bin"
		}
	]
}
