{
	"asset":{
		"generator":"Khronos glTF Blender I/O v4.1.63",
		"version":"2.0"
	},
	"scene":0,
	"scenes":[
		{
			"name":"Scene",
			"nodes":[
				0
			]
		}
	],
	"nodes":[
		{
			"extras":{
				"gltf_primitive_index":0
			},
			"mesh":0,
			"name":"Sphere_1",
			"rotation":[
				0,
				0,
				0.7071068286895752,
				0.7071068286895752
			]
		}
	],
	"meshes":[
		{
			"name":"Sphere_1",
			"primitives":[
				{
					"attributes":{
						"POSITION":0,
						"NORMAL":1
					},
					"indices":2
				}
			]
		}
	],
	"accessors":[
		{
			"bufferView":0,
			"componentType":5126,
			"count":81080,
			"max":[
				62.549888610839844,
				51.16801071166992,
				62.549903869628906
			],
			"min":[
				-62.549888610839844,
				-51.16801071166992,
				-62.549903869628906
			],
			"type":"VEC3"
		},
		{
			"bufferView":1,
			"componentType":5126,
			"count":81080,
			"type":"VEC3"
		},
		{
			"bufferView":2,
			"componentType":5125,
			"count":263328,
			"type":"SCALAR"
		}
	],
	"bufferViews":[
		{
			"buffer":0,
			"byteLength":972960,
			"byteOffset":0,
			"target":34962
		},
		{
			"buffer":0,
			"byteLength":972960,
			"byteOffset":972960,
			"target":34962
		},
		{
			"buffer":0,
			"byteLength":1053312,
			"byteOffset":1945920,
			"target":34963
		}
	],
	"buffers":[
		{
			"byteLength":2999232,
			"uri":"discovery.bin"
		}
	]
}
