{
	"asset":{
		"generator":"Khronos glTF Blender I/O v4.1.63",
		"version":"2.0"
	},
	"scene":0,
	"scenes":[
		{
			"name":"Scene",
			"nodes":[
				0
			]
		}
	],
	"nodes":[
		{
			"extras":{
				"selected_edges_json":"[[2643, 2644], [2644, 2645], [2676, 2709], [2676, 2677], [2677, 2678], [2645, 2678], [2709, 2710], [2710, 2711]]"
			},
			"mesh":0,
			"name":"Torus"
		}
	],
	"meshes":[
		{
			"name":"Torus",
			"primitives":[
				{
					"attributes":{
						"_INDEX":0,
						"POSITION":1,
						"NORMAL":2,
						"TEXCOORD_0":3
					},
					"indices":4
				}
			]
		}
	],
	"accessors":[
		{
			"bufferView":0,
			"componentType":5126,
			"count":11616,
			"type":"SCALAR"
		},
		{
			"bufferView":1,
			"componentType":5126,
			"count":11616,
			"max":[
				2.049999952316284,
				0.7491505146026611,
				2.049999952316284
			],
			"min":[
				-2.049999952316284,
				-0.7491505146026611,
				-2.049999952316284
			],
			"type":"VEC3"
		},
		{
			"bufferView":2,
			"componentType":5126,
			"count":11616,
			"type":"VEC3"
		},
		{
			"bufferView":3,
			"componentType":5126,
			"count":11616,
			"type":"VEC2"
		},
		{
			"bufferView":4,
			"componentType":5123,
			"count":17424,
			"type":"SCALAR"
		}
	],
	"bufferViews":[
		{
			"buffer":0,
			"byteLength":46464,
			"byteOffset":0,
			"target":34962
		},
		{
			"buffer":0,
			"byteLength":139392,
			"byteOffset":46464,
			"target":34962
		},
		{
			"buffer":0,
			"byteLength":139392,
			"byteOffset":185856,
			"target":34962
		},
		{
			"buffer":0,
			"byteLength":92928,
			"byteOffset":325248,
			"target":34962
		},
		{
			"buffer":0,
			"byteLength":34848,
			"byteOffset":418176,
			"target":34963
		}
	],
	"buffers":[
		{
			"byteLength":453024,
			"uri":"torus_custom_property.bin"
		}
	]
}
