{
	"asset":{
		"generator":"Khronos glTF Blender I/O v4.1.63",
		"version":"2.0"
	},
	"scene":0,
	"scenes":[
		{
			"name":"Scene",
			"nodes":[
				0
			]
		}
	],
	"nodes":[
		{
			"extras":{
				"selected_edges_json":"[[2192, 2225], [464, 497], [312, 345], [2056, 2089], [1896, 1929], [800, 833], [1432, 1465], [1752, 1785], [2512, 2513], [2552, 2585], [1128, 1161], [2648, 2649], [2544, 2577], [1288, 1321], [2720, 2753], [2424, 2457], [2576, 2609], [376, 409], [696, 729], [2280, 2313], [2384, 2417], [232, 265], [80, 113], [872, 905], [1360, 1361], [1104, 1137], [1664, 1697], [2312, 2345], [1520, 1553], [1224, 1257], [2808, 2841], [600, 633], [2016, 2049], [2816, 2817], [608, 641], [144, 177], [1817, 1850], [993, 1026], [265, 298], [905, 938], [169, 170], [201, 202], [2481, 2514], [241, 242], [441, 474], [1857, 1890], [2345, 2378], [929, 930], [1401, 1434], [2457, 2490], [601, 602], [2753, 2786], [1889, 1922], [1697, 1730], [1553, 1586], [345, 378], [1297, 1330], [1929, 1962], [2049, 2082], [641, 674], [2225, 2258], [497, 530], [2641, 2674], [1561, 1562], [1137, 1170], [506, 539], [2714, 2715], [1058, 1091], [2490, 2523], [2482, 2515], [770, 771], [2, 2873], [298, 331], [74, 75], [2050, 2051], [1962, 1995], [706, 739], [178, 179], [2, 35], [562, 595], [2322, 2323], [1434, 1467], [730, 763], [2786, 2819], [2090, 2123], [1690, 1723], [2546, 2547], [2082, 2115], [1850, 1883], [2810, 2843], [1858, 1859], [762, 795], [2258, 2291], [1098, 1131], [378, 411], [2818, 2851], [1722, 1755], [1170, 1203], [1162, 1163], [1730, 1763], [1586, 1619], [1467, 1500], [899, 900], [931, 964], [1491, 1524], [995, 996], [1883, 1916], [35, 68], [595, 628], [795, 828], [203, 236], [2643, 2676], [2291, 2324], [411, 444], [1355, 1388], [11, 12], [1763, 1796], [1923, 1956], [139, 140], [1851, 1852], [2147, 2180], [1995, 2028], [1595, 1596], [2819, 2852], [475, 508], [2523, 2556], [331, 364], [1235, 1268], [147, 180], [1091, 1124], [1299, 1332], [2284, 2317], [860, 893], [1388, 1421], [1500, 1533], [1356, 1357], [2556, 2589], [1060, 1093], [276, 309], [2060, 2093], [444, 477], [764, 797], [2348, 2381], [2052, 2053], [1268, 1301], [2220, 2253], [172, 205], [500, 501], [1124, 1157], [436, 437], [180, 213], [2852, 2885], [1916, 1949], [972, 1005], [572, 573], [2708, 2741], [2484, 2485], [2412, 2445], [2580, 2581], [1796, 1829], [629, 630], [2781, 2782], [2813, 2814], [1301, 1334], [2221, 2222], [2413, 2446], [1853, 1854], [1893, 1894], [1949, 1982], [1493, 1526], [2285, 2318], [861, 894], [2445, 2478], [2093, 2126], [2645, 2678], [269, 270], [213, 246], [1005, 1038], [2741, 2774], [2589, 2622], [5, 6], [893, 926], [2125, 2158], [1653, 1686], [1189, 1222], [2349, 2350], [829, 830], [1397, 1430], [773, 806], [1533, 1566], [1421, 1454], [477, 510], [342, 375], [1686, 1719], [1454, 1487], [1758, 1759], [366, 399], [766, 799], [926, 959], [1566, 1599], [1334, 1367], [398, 431], [246, 279], [1038, 1071], [1198, 1231], [806, 839], [1630, 1663], [102, 135], [662, 695], [2478, 2511], [1222, 1255], [14, 2885], [1790, 1823], [934, 935], [998, 999], [2126, 2159], [1958, 1991], [542, 575], [310, 343], [1654, 1687], [2358, 2391], [2214, 2247], [14, 47], [2622, 2655], [174, 207], [839, 872], [1887, 1888], [2543, 2576], [2023, 2024], [1959, 1992], [2159, 2192], [1255, 1288], [2551, 2584], [1071, 1104], [1327, 1328], [1631, 1664], [135, 168], [1487, 1520], [695, 728], [1095, 1128], [2391, 2424], [1863, 1896], [2055, 2088], [895, 896], [967, 968], [575, 608], [2279, 2312], [2447, 2480], [2087, 2120], [47, 80], [2655, 2688], [1727, 1728], [439, 440], [1719, 1752], [2679, 2680], [503, 504], [7, 8], [2319, 2352], [71, 104], [2775, 2776], [431, 464], [279, 312], [4, 36], [13, 45], [72, 38], [73, 39], [78, 44], [102, 68], [110, 142], [147, 113], [168, 200], [200, 232], [273, 239], [277, 243], [300, 266], [335, 301], [338, 304], [308, 340], [336, 368], [398, 364], [372, 404], [400, 432], [467, 433], [499, 531], [510, 542], [530, 562], [567, 533], [570, 536], [565, 597], [638, 604], [662, 628], [632, 664], [640, 672], [699, 665], [674, 706], [700, 732], [762, 728], [736, 768], [773, 739], [828, 860], [832, 864], [961, 927], [972, 938], [993, 959], [1026, 1058], [1065, 1097], [1067, 1099], [1133, 1099], [1159, 1125], [1157, 1189], [1193, 1225], [1203, 1235], [1261, 1227], [1292, 1258], [1323, 1289], [1355, 1321], [1392, 1358], [1396, 1362], [1401, 1367], [1399, 1431], [1422, 1454], [1458, 1424], [1489, 1521], [1499, 1531], [1589, 1555], [1558, 1590], [1599, 1631], [1653, 1619], [1658, 1624], [1660, 1626], [1754, 1720], [1725, 1757], [1762, 1794], [1785, 1817], [1787, 1819], [1789, 1821], [1793, 1825], [1863, 1829], [1889, 1855], [1918, 1950], [1920, 1952], [1928, 1960], [1987, 1953], [1988, 1954], [2016, 1982], [2019, 1985], [1989, 2021], [2028, 2060], [2115, 2147], [2119, 2151], [2122, 2154], [2150, 2182], [2186, 2152], [2157, 2189], [2214, 2180], [2218, 2184], [2216, 2248], [2247, 2279], [2250, 2282], [2315, 2347], [2321, 2353], [2358, 2324], [2390, 2356], [2412, 2378], [2383, 2415], [2421, 2453], [2511, 2543], [2554, 2520], [2555, 2587], [2579, 2611], [2609, 2641], [2647, 2613], [2681, 2647], [2685, 2651], [2708, 2674], [2678, 2710], [2688, 2720], [2808, 2774], [2811, 2777], [2814, 2780], [2819, 2785], [2841, 2873], [2846, 2878]]"
			},
			"mesh":0,
			"name":"Torus"
		}
	],
	"meshes":[
		{
			"name":"Torus",
			"primitives":[
				{
					"attributes":{
						"_INDEX":0,
						"POSITION":1,
						"NORMAL":2,
						"TEXCOORD_0":3,
						"COLOR_0":4
					},
					"indices":5
				}
			]
		}
	],
	"accessors":[
		{
			"bufferView":0,
			"componentType":5126,
			"count":11636,
			"type":"SCALAR"
		},
		{
			"bufferView":1,
			"componentType":5126,
			"count":11636,
			"max":[
				2.049999952316284,
				0.7491505146026611,
				2.049999952316284
			],
			"min":[
				-2.049999952316284,
				-0.7491505146026611,
				-2.049999952316284
			],
			"type":"VEC3"
		},
		{
			"bufferView":2,
			"componentType":5126,
			"count":11636,
			"type":"VEC3"
		},
		{
			"bufferView":3,
			"componentType":5126,
			"count":11636,
			"type":"VEC2"
		},
		{
			"bufferView":4,
			"componentType":5126,
			"count":11636,
			"type":"VEC3"
		},
		{
			"bufferView":5,
			"componentType":5123,
			"count":17424,
			"type":"SCALAR"
		}
	],
	"bufferViews":[
		{
			"buffer":0,
			"byteLength":46544,
			"byteOffset":0,
			"target":34962
		},
		{
			"buffer":0,
			"byteLength":139632,
			"byteOffset":46544,
			"target":34962
		},
		{
			"buffer":0,
			"byteLength":139632,
			"byteOffset":186176,
			"target":34962
		},
		{
			"buffer":0,
			"byteLength":93088,
			"byteOffset":325808,
			"target":34962
		},
		{
			"buffer":0,
			"byteLength":139632,
			"byteOffset":418896,
			"target":34962
		},
		{
			"buffer":0,
			"byteLength":34848,
			"byteOffset":558528,
			"target":34963
		}
	],
	"buffers":[
		{
			"byteLength":593376,
			"uri":"torus_custom_property.bin"
		}
	]
}
