{
	"asset":{
		"generator":"Khronos glTF Blender I/O v4.1.63",
		"version":"2.0"
	},
	"scene":0,
	"scenes":[
		{
			"name":"Scene",
			"nodes":[
				0
			]
		}
	],
	"nodes":[
		{
			"mesh":0,
			"name":"Torus"
		}
	],
	"meshes":[
		{
			"name":"Torus",
			"primitives":[
				{
					"attributes":{
						"POSITION":0,
						"NORMAL":1,
						"TEXCOORD_0":2
					},
					"indices":3
				}
			]
		}
	],
	"accessors":[
		{
			"bufferView":0,
			"componentType":5126,
			"count":11616,
			"max":[
				2.049999952316284,
				0.7491505146026611,
				2.049999952316284
			],
			"min":[
				-2.049999952316284,
				-0.7491505146026611,
				-2.049999952316284
			],
			"type":"VEC3"
		},
		{
			"bufferView":1,
			"componentType":5126,
			"count":11616,
			"type":"VEC3"
		},
		{
			"bufferView":2,
			"componentType":5126,
			"count":11616,
			"type":"VEC2"
		},
		{
			"bufferView":3,
			"componentType":5123,
			"count":17424,
			"type":"SCALAR"
		}
	],
	"bufferViews":[
		{
			"buffer":0,
			"byteLength":139392,
			"byteOffset":0,
			"target":34962
		},
		{
			"buffer":0,
			"byteLength":139392,
			"byteOffset":139392,
			"target":34962
		},
		{
			"buffer":0,
			"byteLength":92928,
			"byteOffset":278784,
			"target":34962
		},
		{
			"buffer":0,
			"byteLength":34848,
			"byteOffset":371712,
			"target":34963
		}
	],
	"buffers":[
		{
			"byteLength":406560,
			"uri":"torus.bin"
		}
	]
}
