{
	"asset":{
		"generator":"Khronos glTF Blender I/O v4.1.63",
		"version":"2.0"
	},
	"scene":0,
	"scenes":[
		{
			"name":"Scene",
			"nodes":[
				5
			]
		}
	],
	"nodes":[
		{
			"mesh":0,
			"name":"Wheel1",
			"rotation":[
				1,
				0,
				0,
				3.1391647326017846e-07
			],
			"scale":[
				1.3150379657745361,
				1.3150379657745361,
				1.3150379657745361
			],
			"translation":[
				-0.012436208315193653,
				-0.054714906960725784,
				-0.021085428074002266
			]
		},
		{
			"mesh":1,
			"name":"Wheel2",
			"scale":[
				0.06030258163809776,
				0.06030258163809776,
				0.06030258163809776
			],
			"translation":[
				-0.011433814652264118,
				0.050381049513816833,
				0.026122650131583214
			]
		},
		{
			"mesh":2,
			"name":"Wheel3",
			"scale":[
				0.06030258163809776,
				0.06030258163809776,
				0.06030258163809776
			],
			"translation":[
				-0.012436199933290482,
				-0.054742857813835144,
				0.02548254281282425
			]
		},
		{
			"mesh":3,
			"name":"Wheel4",
			"rotation":[
				1,
				0,
				0,
				3.1391647326017846e-07
			],
			"scale":[
				0.06030258163809776,
				0.06030258163809776,
				0.06030258163809776
			],
			"translation":[
				-0.011433819308876991,
				0.05040900036692619,
				-0.021285057067871094
			]
		},
		{
			"children":[
				0,
				1,
				2,
				3
			],
			"mesh":4,
			"name":"Car",
			"rotation":[
				-0.5000001192092896,
				0.5000001192092896,
				-0.5,
				0.4999999701976776
			],
			"scale":[
				100,
				100,
				100
			]
		},
		{
			"children":[
				4
			],
			"name":"RootNode"
		}
	],
	"materials":[
		{
			"name":"Body",
			"pbrMetallicRoughness":{
				"baseColorTexture":{
					"index":0
				},
				"metallicFactor":0.4000000059604645,
				"roughnessFactor":0.27216553688049316
			}
		}
	],
	"meshes":[
		{
			"name":"Wheel1",
			"primitives":[
				{
					"attributes":{
						"POSITION":0,
						"NORMAL":1,
						"TEXCOORD_0":2
					},
					"indices":3,
					"material":0
				}
			]
		},
		{
			"name":"Wheel2",
			"primitives":[
				{
					"attributes":{
						"POSITION":4,
						"NORMAL":5,
						"TEXCOORD_0":6
					},
					"indices":7,
					"material":0
				}
			]
		},
		{
			"name":"Wheel3",
			"primitives":[
				{
					"attributes":{
						"POSITION":8,
						"NORMAL":9,
						"TEXCOORD_0":10
					},
					"indices":11,
					"material":0
				}
			]
		},
		{
			"name":"Wheel4",
			"primitives":[
				{
					"attributes":{
						"POSITION":12,
						"NORMAL":13,
						"TEXCOORD_0":14
					},
					"indices":15,
					"material":0
				}
			]
		},
		{
			"name":"Car",
			"primitives":[
				{
					"attributes":{
						"POSITION":16,
						"NORMAL":17,
						"TEXCOORD_0":18
					},
					"indices":19,
					"material":0
				}
			]
		}
	],
	"textures":[
		{
			"sampler":0,
			"source":0
		}
	],
	"images":[
		{
			"mimeType":"image/png",
			"name":"Palette",
			"uri":"Palette.png"
		}
	],
	"accessors":[
		{
			"bufferView":0,
			"componentType":5126,
			"count":2946,
			"max":[
				0.009999999776482582,
				0.009999996982514858,
				0.011910764500498772
			],
			"min":[
				-0.009999999776482582,
				-0.010000002570450306,
				0.00035258533898741007
			],
			"type":"VEC3"
		},
		{
			"bufferView":1,
			"componentType":5126,
			"count":2946,
			"type":"VEC3"
		},
		{
			"bufferView":2,
			"componentType":5126,
			"count":2946,
			"type":"VEC2"
		},
		{
			"bufferView":3,
			"componentType":5123,
			"count":4488,
			"type":"SCALAR"
		},
		{
			"bufferView":4,
			"componentType":5126,
			"count":2970,
			"max":[
				0.21807320415973663,
				0.21807333827018738,
				0.2597419321537018
			],
			"min":[
				-0.2180732935667038,
				-0.21807315945625305,
				0.007688943762332201
			],
			"type":"VEC3"
		},
		{
			"bufferView":5,
			"componentType":5126,
			"count":2970,
			"type":"VEC3"
		},
		{
			"bufferView":6,
			"componentType":5126,
			"count":2970,
			"type":"VEC2"
		},
		{
			"bufferView":7,
			"componentType":5123,
			"count":4488,
			"type":"SCALAR"
		},
		{
			"bufferView":8,
			"componentType":5126,
			"count":2970,
			"max":[
				0.21807320415973663,
				0.2180732637643814,
				0.2597419023513794
			],
			"min":[
				-0.2180732935667038,
				-0.21807323396205902,
				0.007688904646784067
			],
			"type":"VEC3"
		},
		{
			"bufferView":9,
			"componentType":5126,
			"count":2970,
			"type":"VEC3"
		},
		{
			"bufferView":10,
			"componentType":5126,
			"count":2970,
			"type":"VEC2"
		},
		{
			"bufferView":11,
			"componentType":5123,
			"count":4488,
			"type":"SCALAR"
		},
		{
			"bufferView":12,
			"componentType":5126,
			"count":2970,
			"max":[
				0.21807323396205902,
				0.21807318925857544,
				0.2597419321537018
			],
			"min":[
				-0.2180732637643814,
				-0.218073308467865,
				0.007688943762332201
			],
			"type":"VEC3"
		},
		{
			"bufferView":13,
			"componentType":5126,
			"count":2970,
			"type":"VEC3"
		},
		{
			"bufferView":14,
			"componentType":5126,
			"count":2970,
			"type":"VEC2"
		},
		{
			"bufferView":15,
			"componentType":5123,
			"count":4488,
			"type":"SCALAR"
		},
		{
			"bufferView":16,
			"componentType":5126,
			"count":12397,
			"max":[
				-0.004850380122661591,
				0.09302140772342682,
				0.043083108961582184
			],
			"min":[
				-0.05632789433002472,
				-0.09307949990034103,
				-0.037963416427373886
			],
			"type":"VEC3"
		},
		{
			"bufferView":17,
			"componentType":5126,
			"count":12397,
			"type":"VEC3"
		},
		{
			"bufferView":18,
			"componentType":5126,
			"count":12397,
			"type":"VEC2"
		},
		{
			"bufferView":19,
			"componentType":5123,
			"count":18015,
			"type":"SCALAR"
		}
	],
	"bufferViews":[
		{
			"buffer":0,
			"byteLength":35352,
			"byteOffset":0,
			"target":34962
		},
		{
			"buffer":0,
			"byteLength":35352,
			"byteOffset":35352,
			"target":34962
		},
		{
			"buffer":0,
			"byteLength":23568,
			"byteOffset":70704,
			"target":34962
		},
		{
			"buffer":0,
			"byteLength":8976,
			"byteOffset":94272,
			"target":34963
		},
		{
			"buffer":0,
			"byteLength":35640,
			"byteOffset":103248,
			"target":34962
		},
		{
			"buffer":0,
			"byteLength":35640,
			"byteOffset":138888,
			"target":34962
		},
		{
			"buffer":0,
			"byteLength":23760,
			"byteOffset":174528,
			"target":34962
		},
		{
			"buffer":0,
			"byteLength":8976,
			"byteOffset":198288,
			"target":34963
		},
		{
			"buffer":0,
			"byteLength":35640,
			"byteOffset":207264,
			"target":34962
		},
		{
			"buffer":0,
			"byteLength":35640,
			"byteOffset":242904,
			"target":34962
		},
		{
			"buffer":0,
			"byteLength":23760,
			"byteOffset":278544,
			"target":34962
		},
		{
			"buffer":0,
			"byteLength":8976,
			"byteOffset":302304,
			"target":34963
		},
		{
			"buffer":0,
			"byteLength":35640,
			"byteOffset":311280,
			"target":34962
		},
		{
			"buffer":0,
			"byteLength":35640,
			"byteOffset":346920,
			"target":34962
		},
		{
			"buffer":0,
			"byteLength":23760,
			"byteOffset":382560,
			"target":34962
		},
		{
			"buffer":0,
			"byteLength":8976,
			"byteOffset":406320,
			"target":34963
		},
		{
			"buffer":0,
			"byteLength":148764,
			"byteOffset":415296,
			"target":34962
		},
		{
			"buffer":0,
			"byteLength":148764,
			"byteOffset":564060,
			"target":34962
		},
		{
			"buffer":0,
			"byteLength":99176,
			"byteOffset":712824,
			"target":34962
		},
		{
			"buffer":0,
			"byteLength":36030,
			"byteOffset":812000,
			"target":34963
		}
	],
	"samplers":[
		{
			"magFilter":9729,
			"minFilter":9987
		}
	],
	"buffers":[
		{
			"byteLength":848032,
			"uri":"toyota2.bin"
		}
	]
}
